<mxfile host="app.diagrams.net" modified="2023-06-02T06:46:26.998Z" agent="Mozilla/5.0 (Windows NT 10.0; Win64; x64) AppleWebKit/537.36 (KHTML, like Gecko) Chrome/107.0.0.0 Safari/537.36" etag="x6oey1PeFvYkUZZWZgcR" version="21.3.0" type="github">
  <diagram name="Page-1" id="2YBvvXClWsGukQMizWep">
    <mxGraphModel dx="1780" dy="626" grid="0" gridSize="10" guides="1" tooltips="1" connect="1" arrows="1" fold="1" page="1" pageScale="1" pageWidth="850" pageHeight="1100" math="0" shadow="0">
      <root>
        <mxCell id="0" />
        <mxCell id="1" parent="0" />
        <mxCell id="_f6-LcQ2s9BJ2RR13vZq-1" value="客户端" style="shape=umlLifeline;perimeter=lifelinePerimeter;whiteSpace=wrap;html=1;container=1;dropTarget=0;collapsible=0;recursiveResize=0;outlineConnect=0;portConstraint=eastwest;newEdgeStyle={&quot;edgeStyle&quot;:&quot;elbowEdgeStyle&quot;,&quot;elbow&quot;:&quot;vertical&quot;,&quot;curved&quot;:0,&quot;rounded&quot;:0};" vertex="1" parent="1">
          <mxGeometry x="31" y="51" width="100" height="500" as="geometry" />
        </mxCell>
        <mxCell id="_f6-LcQ2s9BJ2RR13vZq-3" value="" style="html=1;points=[];perimeter=orthogonalPerimeter;outlineConnect=0;targetShapes=umlLifeline;portConstraint=eastwest;newEdgeStyle={&quot;edgeStyle&quot;:&quot;elbowEdgeStyle&quot;,&quot;elbow&quot;:&quot;vertical&quot;,&quot;curved&quot;:0,&quot;rounded&quot;:0};" vertex="1" parent="_f6-LcQ2s9BJ2RR13vZq-1">
          <mxGeometry x="45" y="65" width="10" height="55" as="geometry" />
        </mxCell>
        <mxCell id="_f6-LcQ2s9BJ2RR13vZq-10" value="" style="html=1;points=[];perimeter=orthogonalPerimeter;outlineConnect=0;targetShapes=umlLifeline;portConstraint=eastwest;newEdgeStyle={&quot;edgeStyle&quot;:&quot;elbowEdgeStyle&quot;,&quot;elbow&quot;:&quot;vertical&quot;,&quot;curved&quot;:0,&quot;rounded&quot;:0};" vertex="1" parent="_f6-LcQ2s9BJ2RR13vZq-1">
          <mxGeometry x="45" y="146" width="10" height="45" as="geometry" />
        </mxCell>
        <mxCell id="_f6-LcQ2s9BJ2RR13vZq-15" value="" style="html=1;points=[];perimeter=orthogonalPerimeter;outlineConnect=0;targetShapes=umlLifeline;portConstraint=eastwest;newEdgeStyle={&quot;edgeStyle&quot;:&quot;elbowEdgeStyle&quot;,&quot;elbow&quot;:&quot;vertical&quot;,&quot;curved&quot;:0,&quot;rounded&quot;:0};" vertex="1" parent="_f6-LcQ2s9BJ2RR13vZq-1">
          <mxGeometry x="45" y="223" width="10" height="41" as="geometry" />
        </mxCell>
        <mxCell id="_f6-LcQ2s9BJ2RR13vZq-21" value="" style="html=1;points=[];perimeter=orthogonalPerimeter;outlineConnect=0;targetShapes=umlLifeline;portConstraint=eastwest;newEdgeStyle={&quot;edgeStyle&quot;:&quot;elbowEdgeStyle&quot;,&quot;elbow&quot;:&quot;vertical&quot;,&quot;curved&quot;:0,&quot;rounded&quot;:0};" vertex="1" parent="_f6-LcQ2s9BJ2RR13vZq-1">
          <mxGeometry x="45" y="292" width="10" height="35" as="geometry" />
        </mxCell>
        <mxCell id="_f6-LcQ2s9BJ2RR13vZq-25" value="" style="html=1;points=[];perimeter=orthogonalPerimeter;outlineConnect=0;targetShapes=umlLifeline;portConstraint=eastwest;newEdgeStyle={&quot;edgeStyle&quot;:&quot;elbowEdgeStyle&quot;,&quot;elbow&quot;:&quot;vertical&quot;,&quot;curved&quot;:0,&quot;rounded&quot;:0};" vertex="1" parent="_f6-LcQ2s9BJ2RR13vZq-1">
          <mxGeometry x="45" y="361" width="10" height="35" as="geometry" />
        </mxCell>
        <mxCell id="_f6-LcQ2s9BJ2RR13vZq-2" value="Actor" style="shape=umlActor;verticalLabelPosition=bottom;verticalAlign=top;html=1;" vertex="1" parent="1">
          <mxGeometry x="64.5" y="3" width="33" height="27" as="geometry" />
        </mxCell>
        <mxCell id="_f6-LcQ2s9BJ2RR13vZq-4" value="认证中心" style="shape=umlLifeline;perimeter=lifelinePerimeter;whiteSpace=wrap;html=1;container=1;dropTarget=0;collapsible=0;recursiveResize=0;outlineConnect=0;portConstraint=eastwest;newEdgeStyle={&quot;edgeStyle&quot;:&quot;elbowEdgeStyle&quot;,&quot;elbow&quot;:&quot;vertical&quot;,&quot;curved&quot;:0,&quot;rounded&quot;:0};" vertex="1" parent="1">
          <mxGeometry x="231" y="51" width="100" height="502" as="geometry" />
        </mxCell>
        <mxCell id="_f6-LcQ2s9BJ2RR13vZq-13" value="" style="html=1;points=[];perimeter=orthogonalPerimeter;outlineConnect=0;targetShapes=umlLifeline;portConstraint=eastwest;newEdgeStyle={&quot;edgeStyle&quot;:&quot;elbowEdgeStyle&quot;,&quot;elbow&quot;:&quot;vertical&quot;,&quot;curved&quot;:0,&quot;rounded&quot;:0};" vertex="1" parent="_f6-LcQ2s9BJ2RR13vZq-4">
          <mxGeometry x="45" y="187" width="10" height="43" as="geometry" />
        </mxCell>
        <mxCell id="_f6-LcQ2s9BJ2RR13vZq-16" value="" style="html=1;points=[];perimeter=orthogonalPerimeter;outlineConnect=0;targetShapes=umlLifeline;portConstraint=eastwest;newEdgeStyle={&quot;edgeStyle&quot;:&quot;elbowEdgeStyle&quot;,&quot;elbow&quot;:&quot;vertical&quot;,&quot;curved&quot;:0,&quot;rounded&quot;:0};" vertex="1" parent="_f6-LcQ2s9BJ2RR13vZq-4">
          <mxGeometry x="45" y="257" width="10" height="42" as="geometry" />
        </mxCell>
        <mxCell id="_f6-LcQ2s9BJ2RR13vZq-38" value="" style="html=1;points=[];perimeter=orthogonalPerimeter;outlineConnect=0;targetShapes=umlLifeline;portConstraint=eastwest;newEdgeStyle={&quot;edgeStyle&quot;:&quot;elbowEdgeStyle&quot;,&quot;elbow&quot;:&quot;vertical&quot;,&quot;curved&quot;:0,&quot;rounded&quot;:0};" vertex="1" parent="_f6-LcQ2s9BJ2RR13vZq-4">
          <mxGeometry x="45" y="420" width="10" height="39" as="geometry" />
        </mxCell>
        <mxCell id="_f6-LcQ2s9BJ2RR13vZq-5" value="WEB应用" style="shape=umlLifeline;perimeter=lifelinePerimeter;whiteSpace=wrap;html=1;container=1;dropTarget=0;collapsible=0;recursiveResize=0;outlineConnect=0;portConstraint=eastwest;newEdgeStyle={&quot;edgeStyle&quot;:&quot;elbowEdgeStyle&quot;,&quot;elbow&quot;:&quot;vertical&quot;,&quot;curved&quot;:0,&quot;rounded&quot;:0};" vertex="1" parent="1">
          <mxGeometry x="455" y="51" width="100" height="514" as="geometry" />
        </mxCell>
        <mxCell id="_f6-LcQ2s9BJ2RR13vZq-6" value="" style="html=1;points=[];perimeter=orthogonalPerimeter;outlineConnect=0;targetShapes=umlLifeline;portConstraint=eastwest;newEdgeStyle={&quot;edgeStyle&quot;:&quot;elbowEdgeStyle&quot;,&quot;elbow&quot;:&quot;vertical&quot;,&quot;curved&quot;:0,&quot;rounded&quot;:0};" vertex="1" parent="_f6-LcQ2s9BJ2RR13vZq-5">
          <mxGeometry x="45" y="116" width="10" height="40" as="geometry" />
        </mxCell>
        <mxCell id="_f6-LcQ2s9BJ2RR13vZq-17" value="" style="html=1;points=[];perimeter=orthogonalPerimeter;outlineConnect=0;targetShapes=umlLifeline;portConstraint=eastwest;newEdgeStyle={&quot;edgeStyle&quot;:&quot;elbowEdgeStyle&quot;,&quot;elbow&quot;:&quot;vertical&quot;,&quot;curved&quot;:0,&quot;rounded&quot;:0};" vertex="1" parent="_f6-LcQ2s9BJ2RR13vZq-5">
          <mxGeometry x="45" y="320" width="10" height="45" as="geometry" />
        </mxCell>
        <mxCell id="_f6-LcQ2s9BJ2RR13vZq-37" value="" style="html=1;points=[];perimeter=orthogonalPerimeter;outlineConnect=0;targetShapes=umlLifeline;portConstraint=eastwest;newEdgeStyle={&quot;edgeStyle&quot;:&quot;elbowEdgeStyle&quot;,&quot;elbow&quot;:&quot;vertical&quot;,&quot;curved&quot;:0,&quot;rounded&quot;:0};" vertex="1" parent="_f6-LcQ2s9BJ2RR13vZq-5">
          <mxGeometry x="45" y="395" width="10" height="37" as="geometry" />
        </mxCell>
        <mxCell id="_f6-LcQ2s9BJ2RR13vZq-43" value="" style="html=1;points=[];perimeter=orthogonalPerimeter;outlineConnect=0;targetShapes=umlLifeline;portConstraint=eastwest;newEdgeStyle={&quot;edgeStyle&quot;:&quot;elbowEdgeStyle&quot;,&quot;elbow&quot;:&quot;vertical&quot;,&quot;curved&quot;:0,&quot;rounded&quot;:0};" vertex="1" parent="_f6-LcQ2s9BJ2RR13vZq-5">
          <mxGeometry x="45" y="460" width="10" height="39" as="geometry" />
        </mxCell>
        <mxCell id="_f6-LcQ2s9BJ2RR13vZq-7" style="edgeStyle=elbowEdgeStyle;rounded=0;orthogonalLoop=1;jettySize=auto;html=1;elbow=vertical;curved=0;" edge="1" parent="1" source="_f6-LcQ2s9BJ2RR13vZq-3" target="_f6-LcQ2s9BJ2RR13vZq-6">
          <mxGeometry relative="1" as="geometry" />
        </mxCell>
        <mxCell id="_f6-LcQ2s9BJ2RR13vZq-8" value="检查cookie是否有token" style="text;html=1;strokeColor=none;fillColor=none;align=center;verticalAlign=middle;whiteSpace=wrap;rounded=0;" vertex="1" parent="1">
          <mxGeometry x="551" y="138" width="91" height="30" as="geometry" />
        </mxCell>
        <mxCell id="_f6-LcQ2s9BJ2RR13vZq-11" style="edgeStyle=elbowEdgeStyle;rounded=0;orthogonalLoop=1;jettySize=auto;html=1;elbow=vertical;curved=0;" edge="1" parent="1" source="_f6-LcQ2s9BJ2RR13vZq-6" target="_f6-LcQ2s9BJ2RR13vZq-10">
          <mxGeometry relative="1" as="geometry" />
        </mxCell>
        <mxCell id="_f6-LcQ2s9BJ2RR13vZq-12" value="不存在token，重定向到认证中心" style="edgeLabel;html=1;align=center;verticalAlign=middle;resizable=0;points=[];" vertex="1" connectable="0" parent="_f6-LcQ2s9BJ2RR13vZq-11">
          <mxGeometry x="0.1948" y="2" relative="1" as="geometry">
            <mxPoint as="offset" />
          </mxGeometry>
        </mxCell>
        <mxCell id="_f6-LcQ2s9BJ2RR13vZq-18" style="edgeStyle=elbowEdgeStyle;rounded=0;orthogonalLoop=1;jettySize=auto;html=1;elbow=vertical;curved=0;" edge="1" parent="1" source="_f6-LcQ2s9BJ2RR13vZq-13" target="_f6-LcQ2s9BJ2RR13vZq-15">
          <mxGeometry relative="1" as="geometry" />
        </mxCell>
        <mxCell id="_f6-LcQ2s9BJ2RR13vZq-19" value="提示用户登录、注册" style="edgeLabel;html=1;align=center;verticalAlign=middle;resizable=0;points=[];" vertex="1" connectable="0" parent="_f6-LcQ2s9BJ2RR13vZq-18">
          <mxGeometry x="0.214" y="1" relative="1" as="geometry">
            <mxPoint as="offset" />
          </mxGeometry>
        </mxCell>
        <mxCell id="_f6-LcQ2s9BJ2RR13vZq-20" style="edgeStyle=elbowEdgeStyle;rounded=0;orthogonalLoop=1;jettySize=auto;html=1;elbow=vertical;curved=0;" edge="1" parent="1" source="_f6-LcQ2s9BJ2RR13vZq-15" target="_f6-LcQ2s9BJ2RR13vZq-16">
          <mxGeometry relative="1" as="geometry" />
        </mxCell>
        <mxCell id="_f6-LcQ2s9BJ2RR13vZq-22" style="edgeStyle=elbowEdgeStyle;rounded=0;orthogonalLoop=1;jettySize=auto;html=1;elbow=vertical;curved=0;" edge="1" parent="1" source="_f6-LcQ2s9BJ2RR13vZq-16" target="_f6-LcQ2s9BJ2RR13vZq-21">
          <mxGeometry relative="1" as="geometry" />
        </mxCell>
        <mxCell id="_f6-LcQ2s9BJ2RR13vZq-23" value="用户登录成功" style="edgeLabel;html=1;align=center;verticalAlign=middle;resizable=0;points=[];" vertex="1" connectable="0" parent="_f6-LcQ2s9BJ2RR13vZq-22">
          <mxGeometry x="0.4035" y="3" relative="1" as="geometry">
            <mxPoint as="offset" />
          </mxGeometry>
        </mxCell>
        <mxCell id="_f6-LcQ2s9BJ2RR13vZq-24" value="核对用户信息" style="text;html=1;align=center;verticalAlign=middle;resizable=0;points=[];autosize=1;strokeColor=none;fillColor=none;" vertex="1" parent="1">
          <mxGeometry x="287" y="311" width="90" height="26" as="geometry" />
        </mxCell>
        <mxCell id="_f6-LcQ2s9BJ2RR13vZq-29" style="edgeStyle=elbowEdgeStyle;rounded=0;orthogonalLoop=1;jettySize=auto;html=1;elbow=vertical;curved=0;" edge="1" parent="1" source="_f6-LcQ2s9BJ2RR13vZq-21" target="_f6-LcQ2s9BJ2RR13vZq-17">
          <mxGeometry relative="1" as="geometry" />
        </mxCell>
        <mxCell id="_f6-LcQ2s9BJ2RR13vZq-30" value="带token跳转原web应用" style="edgeLabel;html=1;align=center;verticalAlign=middle;resizable=0;points=[];" vertex="1" connectable="0" parent="_f6-LcQ2s9BJ2RR13vZq-29">
          <mxGeometry x="-0.3881" relative="1" as="geometry">
            <mxPoint x="48" y="-1" as="offset" />
          </mxGeometry>
        </mxCell>
        <mxCell id="_f6-LcQ2s9BJ2RR13vZq-33" style="edgeStyle=elbowEdgeStyle;rounded=0;orthogonalLoop=1;jettySize=auto;html=1;elbow=vertical;curved=0;" edge="1" parent="1" source="_f6-LcQ2s9BJ2RR13vZq-17" target="_f6-LcQ2s9BJ2RR13vZq-25">
          <mxGeometry relative="1" as="geometry" />
        </mxCell>
        <mxCell id="_f6-LcQ2s9BJ2RR13vZq-34" value="业务功能页面" style="edgeLabel;html=1;align=center;verticalAlign=middle;resizable=0;points=[];" vertex="1" connectable="0" parent="_f6-LcQ2s9BJ2RR13vZq-33">
          <mxGeometry x="0.132" y="2" relative="1" as="geometry">
            <mxPoint as="offset" />
          </mxGeometry>
        </mxCell>
        <mxCell id="_f6-LcQ2s9BJ2RR13vZq-35" value="如果是带token的跳转，则写入cookie中，&lt;br&gt;并继续打开业务功能页面" style="text;html=1;align=center;verticalAlign=middle;resizable=0;points=[];autosize=1;strokeColor=none;fillColor=none;" vertex="1" parent="1">
          <mxGeometry x="532" y="354" width="238" height="41" as="geometry" />
        </mxCell>
        <mxCell id="_f6-LcQ2s9BJ2RR13vZq-36" style="edgeStyle=elbowEdgeStyle;rounded=0;orthogonalLoop=1;jettySize=auto;html=1;elbow=vertical;curved=0;" edge="1" parent="1" source="_f6-LcQ2s9BJ2RR13vZq-10" target="_f6-LcQ2s9BJ2RR13vZq-13">
          <mxGeometry relative="1" as="geometry" />
        </mxCell>
        <mxCell id="_f6-LcQ2s9BJ2RR13vZq-39" style="edgeStyle=elbowEdgeStyle;rounded=0;orthogonalLoop=1;jettySize=auto;html=1;elbow=vertical;curved=0;" edge="1" parent="1" source="_f6-LcQ2s9BJ2RR13vZq-25" target="_f6-LcQ2s9BJ2RR13vZq-37">
          <mxGeometry relative="1" as="geometry" />
        </mxCell>
        <mxCell id="_f6-LcQ2s9BJ2RR13vZq-40" value="用户继续访问其他业务功能页面" style="edgeLabel;html=1;align=center;verticalAlign=middle;resizable=0;points=[];" vertex="1" connectable="0" parent="_f6-LcQ2s9BJ2RR13vZq-39">
          <mxGeometry x="-0.2721" y="-3" relative="1" as="geometry">
            <mxPoint x="31" y="-1" as="offset" />
          </mxGeometry>
        </mxCell>
        <mxCell id="_f6-LcQ2s9BJ2RR13vZq-41" style="edgeStyle=elbowEdgeStyle;rounded=0;orthogonalLoop=1;jettySize=auto;html=1;elbow=vertical;curved=0;" edge="1" parent="1" source="_f6-LcQ2s9BJ2RR13vZq-37" target="_f6-LcQ2s9BJ2RR13vZq-38">
          <mxGeometry relative="1" as="geometry" />
        </mxCell>
        <mxCell id="_f6-LcQ2s9BJ2RR13vZq-42" value="存在token&lt;br&gt;提交认证中心认证" style="edgeLabel;html=1;align=center;verticalAlign=middle;resizable=0;points=[];" vertex="1" connectable="0" parent="_f6-LcQ2s9BJ2RR13vZq-41">
          <mxGeometry x="0.1713" relative="1" as="geometry">
            <mxPoint as="offset" />
          </mxGeometry>
        </mxCell>
        <mxCell id="_f6-LcQ2s9BJ2RR13vZq-44" style="edgeStyle=elbowEdgeStyle;rounded=0;orthogonalLoop=1;jettySize=auto;html=1;elbow=vertical;curved=0;" edge="1" parent="1" source="_f6-LcQ2s9BJ2RR13vZq-38" target="_f6-LcQ2s9BJ2RR13vZq-43">
          <mxGeometry relative="1" as="geometry" />
        </mxCell>
        <mxCell id="_f6-LcQ2s9BJ2RR13vZq-45" value="认证身份" style="edgeLabel;html=1;align=center;verticalAlign=middle;resizable=0;points=[];" vertex="1" connectable="0" parent="_f6-LcQ2s9BJ2RR13vZq-44">
          <mxGeometry x="-0.0485" y="-1" relative="1" as="geometry">
            <mxPoint as="offset" />
          </mxGeometry>
        </mxCell>
        <mxCell id="_f6-LcQ2s9BJ2RR13vZq-46" value="" style="html=1;points=[];perimeter=orthogonalPerimeter;outlineConnect=0;targetShapes=umlLifeline;portConstraint=eastwest;newEdgeStyle={&quot;edgeStyle&quot;:&quot;elbowEdgeStyle&quot;,&quot;elbow&quot;:&quot;vertical&quot;,&quot;curved&quot;:0,&quot;rounded&quot;:0};" vertex="1" parent="1">
          <mxGeometry x="76" y="526" width="10" height="39" as="geometry" />
        </mxCell>
        <mxCell id="_f6-LcQ2s9BJ2RR13vZq-47" style="edgeStyle=elbowEdgeStyle;rounded=0;orthogonalLoop=1;jettySize=auto;html=1;elbow=vertical;curved=0;" edge="1" parent="1" source="_f6-LcQ2s9BJ2RR13vZq-43" target="_f6-LcQ2s9BJ2RR13vZq-46">
          <mxGeometry relative="1" as="geometry" />
        </mxCell>
        <mxCell id="_f6-LcQ2s9BJ2RR13vZq-48" value="业务功能页面" style="edgeLabel;html=1;align=center;verticalAlign=middle;resizable=0;points=[];" vertex="1" connectable="0" parent="_f6-LcQ2s9BJ2RR13vZq-47">
          <mxGeometry x="0.2625" y="1" relative="1" as="geometry">
            <mxPoint x="34" y="-1" as="offset" />
          </mxGeometry>
        </mxCell>
      </root>
    </mxGraphModel>
  </diagram>
</mxfile>
